<?xml version="1.0" encoding="UTF-8"?><svg xmlns="http://www.w3.org/2000/svg" xmlns:xlink="http://www.w3.org/1999/xlink" width="768" zoomAndPan="magnify" viewBox="0 0 768 767.999994" height="767.999994" preserveAspectRatio="xMidYMid meet" version="1.0"><defs><clipPath id="clip-0"><path d="M 35.960938 93.542969 L 731.960938 93.542969 L 731.960938 674.792969 L 35.960938 674.792969 Z M 35.960938 93.542969 " clip-rule="nonzero"/></clipPath></defs><g clip-path="url(#clip-0)"><path fill="rgb(38.819885%, 35.688782%, 100%)" d="M 451.0625 568.660156 C 438.855469 546.953125 415.601562 532.25 388.980469 532.25 C 372.785156 532.25 357.839844 537.695312 345.867188 546.839844 L 290.644531 467.515625 L 335.824219 441.417969 C 348.707031 454.265625 366.472656 462.226562 386.058594 462.226562 C 420.234375 462.226562 448.859375 437.996094 455.683594 405.808594 L 557.160156 422.898438 C 555.277344 430.101562 554.273438 437.652344 554.273438 445.4375 C 554.273438 462.335938 559 478.148438 567.199219 491.625 Z M 388.980469 661.734375 C 356.867188 661.734375 330.742188 635.59375 330.742188 603.464844 C 330.742188 571.332031 356.867188 545.195312 388.980469 545.195312 C 421.09375 545.195312 447.21875 571.332031 447.21875 603.464844 C 447.21875 635.59375 421.09375 661.734375 388.980469 661.734375 Z M 213.625 497.058594 C 212.609375 477.921875 205.527344 460.371094 194.277344 446.296875 L 227.476562 399.429688 L 271.976562 463.351562 Z M 124.703125 577.996094 C 82.730469 577.996094 48.585938 543.835938 48.585938 501.84375 C 48.585938 459.847656 82.730469 425.6875 124.703125 425.6875 C 166.671875 425.6875 200.816406 459.847656 200.816406 501.84375 C 200.816406 543.835938 166.671875 577.996094 124.703125 577.996094 Z M 48.585938 251.742188 C 48.585938 209.746094 82.730469 175.585938 124.703125 175.585938 C 166.671875 175.585938 200.816406 209.746094 200.816406 251.742188 C 200.816406 293.730469 166.671875 327.894531 124.703125 327.894531 C 82.730469 327.894531 48.585938 293.730469 48.585938 251.742188 Z M 185.285156 436.601562 C 170.859375 423.183594 151.996094 414.484375 131.171875 412.980469 L 131.171875 340.601562 C 147.589844 339.417969 162.785156 333.757812 175.550781 324.84375 L 219.617188 388.140625 Z M 267.515625 320.523438 L 227.570312 376.914062 L 185.625 316.660156 C 194.820312 308.019531 202.183594 297.449219 207.066406 285.605469 Z M 327.417969 431.328125 L 283.222656 456.851562 L 235.429688 388.203125 L 278.769531 327.023438 L 325.324219 353.917969 C 318.703125 364.726562 314.882812 377.429688 314.882812 391.011719 C 314.882812 405.964844 319.515625 419.851562 327.417969 431.328125 Z M 327.820312 391.011719 C 327.820312 358.882812 353.945312 332.742188 386.058594 332.742188 C 418.171875 332.742188 444.296875 358.882812 444.296875 391.011719 C 444.296875 423.140625 418.171875 449.28125 386.058594 449.28125 C 353.945312 449.28125 327.820312 423.140625 327.820312 391.011719 Z M 350.101562 226.324219 C 360.664062 232.535156 372.949219 236.097656 386.058594 236.097656 C 402.09375 236.097656 416.910156 230.765625 428.824219 221.773438 L 585.070312 378.101562 C 574.917969 386.902344 566.773438 397.964844 561.414062 410.492188 L 457.207031 392.9375 C 457.222656 392.300781 457.234375 391.65625 457.234375 391.011719 C 457.234375 351.746094 425.304688 319.796875 386.058594 319.796875 C 365.058594 319.796875 346.152344 328.949219 333.113281 343.46875 L 286.28125 316.414062 Z M 327.820312 164.886719 C 327.820312 132.757812 353.945312 106.617188 386.058594 106.617188 C 418.171875 106.617188 444.296875 132.757812 444.296875 164.886719 C 444.296875 197.015625 418.171875 223.15625 386.058594 223.15625 C 353.945312 223.15625 327.820312 197.015625 327.820312 164.886719 Z M 719.441406 445.4375 C 719.441406 487.429688 685.296875 521.59375 643.328125 521.59375 C 601.355469 521.59375 567.210938 487.429688 567.210938 445.4375 C 567.210938 403.445312 601.355469 369.28125 643.328125 369.28125 C 685.296875 369.28125 719.441406 403.445312 719.441406 445.4375 Z M 643.328125 534.539062 C 692.433594 534.539062 732.378906 494.566406 732.378906 445.4375 C 732.378906 396.308594 692.433594 356.339844 643.328125 356.339844 C 625.757812 356.339844 609.363281 361.457031 595.550781 370.277344 L 438.421875 213.070312 C 450.09375 200.378906 457.234375 183.453125 457.234375 164.886719 C 457.234375 125.617188 425.304688 93.671875 386.058594 93.671875 C 346.808594 93.671875 314.882812 125.617188 314.882812 164.886719 C 314.882812 186.398438 324.464844 205.714844 339.589844 218.785156 L 275.03125 309.917969 L 211.179688 273.03125 C 212.855469 266.207031 213.753906 259.078125 213.753906 251.742188 C 213.753906 202.609375 173.804688 162.640625 124.703125 162.640625 C 75.597656 162.640625 35.648438 202.609375 35.648438 251.742188 C 35.648438 298.695312 72.136719 337.277344 118.234375 340.601562 L 118.234375 412.980469 C 72.136719 416.304688 35.648438 454.890625 35.648438 501.84375 C 35.648438 550.972656 75.597656 590.941406 124.703125 590.941406 C 170.273438 590.941406 207.953125 556.511719 213.140625 512.285156 L 279.398438 474.007812 L 336.25 555.679688 C 324.792969 568.324219 317.804688 585.09375 317.804688 603.464844 C 317.804688 642.730469 349.734375 674.675781 388.980469 674.675781 C 428.226562 674.675781 460.15625 642.730469 460.15625 603.464844 C 460.15625 595.484375 458.839844 587.808594 456.410156 580.644531 L 574.710938 502.171875 C 591.058594 521.929688 615.746094 534.539062 643.328125 534.539062 " fill-opacity="1" fill-rule="nonzero"/></g></svg>